<svg width="42" height="42" viewBox="0 0 42 42" fill="none" xmlns="http://www.w3.org/2000/svg">
<path d="M29.75 3.5H12.25C7.41751 3.5 3.5 7.41751 3.5 12.25V29.75C3.5 34.5825 7.41751 38.5 12.25 38.5H29.75C34.5825 38.5 38.5 34.5825 38.5 29.75V12.25C38.5 7.41751 34.5825 3.5 29.75 3.5Z" fill="url(#paint0_linear_1608_382)"/>
<path opacity="0.9" d="M29.1614 17.043L26.8864 14.5501C26.8087 14.4651 26.715 14.3964 26.6106 14.3477C26.5063 14.299 26.3934 14.2714 26.2784 14.2664C26.1634 14.2615 26.0485 14.2793 25.9404 14.3188C25.8322 14.3583 25.733 14.4188 25.6482 14.4967L19.1024 20.5132C19.0192 20.5895 18.9098 20.6308 18.797 20.6284C18.6841 20.6259 18.5766 20.5799 18.4969 20.5001L16.4922 18.4876C16.4109 18.406 16.3143 18.3412 16.2079 18.297C16.1016 18.2528 15.9875 18.2301 15.8723 18.2301C15.7571 18.2301 15.643 18.2528 15.5367 18.297C15.4303 18.3412 15.3337 18.406 15.2524 18.4876L12.8627 20.8798C12.6992 21.0438 12.6074 21.266 12.6074 21.4976C12.6074 21.7292 12.6992 21.9513 12.8627 22.1153L18.3376 27.6051C18.4174 27.6849 18.5249 27.7309 18.6377 27.7333C18.7506 27.7358 18.86 27.6945 18.9431 27.6182L29.1071 18.2776C29.2778 18.1209 29.3793 17.9029 29.3895 17.6715C29.3996 17.44 29.3176 17.214 29.1614 17.043Z" fill="white"/>
<defs>
<linearGradient id="paint0_linear_1608_382" x1="3.5" y1="2.04671" x2="46.4058" y2="31.7837" gradientUnits="userSpaceOnUse">
<stop stop-color="#9408FE"/>
<stop offset="1" stop-color="#05D4FF"/>
</linearGradient>
</defs>
</svg>
